# Blender v2.67 (sub 0) OBJ File: 'cubesd.blend'
# www.blender.org
mtllib cubesds.mtl
o Cube
v 0.000000 -1.000000 -0.000000
v -0.000000 1.000000 0.000000
v 1.000000 0.000000 0.000000
v -0.000000 0.000000 1.000000
v -1.000000 0.000000 -0.000000
v 0.000000 0.000000 -1.000000
v 0.750000 -0.750000 0.000000
v 0.000000 -0.750000 -0.750000
v 0.750000 0.000000 -0.750000
v -0.000000 -0.750000 0.750000
v 0.750000 0.000000 0.750000
v -0.750000 -0.750000 -0.000000
v -0.750000 0.000000 0.750000
v -0.750000 0.000000 -0.750000
v 0.750000 0.750000 0.000000
v 0.000000 0.750000 -0.750000
v -0.000000 0.750000 0.750000
v -0.750000 0.750000 -0.000000
v 0.555556 -0.555556 -0.555556
v 0.555555 -0.555556 0.555556
v -0.555556 -0.555556 0.555555
v -0.555555 -0.555556 -0.555556
v 0.555556 0.555556 -0.555555
v 0.555555 0.555556 0.555556
v -0.555556 0.555556 0.555556
v -0.555556 0.555556 -0.555556
vt 0.349835 0.000100
vt 0.499900 0.142773
vt 0.375829 0.196009
vt 0.289061 0.152225
vt 0.196009 0.124171
vt 0.849835 0.000100
vt 0.999900 0.142773
vt 0.789061 0.152225
vt 0.642773 0.000100
vt 0.150164 0.499900
vt 0.210939 0.347775
vt 0.303991 0.375829
vt 0.650165 0.499900
vt 0.500100 0.357227
vt 0.710939 0.347775
vt 0.857227 0.499900
vt 0.000100 0.357227
vt 0.124171 0.303991
vt 0.250000 0.250000
vt 0.347775 0.289061
vt 0.152225 0.210939
vt 0.000100 0.150164
vt 0.142773 0.000100
vt 0.999900 0.349835
vt 0.847775 0.289061
vt 0.750000 0.250000
vt 0.652225 0.210939
vt 0.499900 0.349836
vt 0.357227 0.499900
vt 0.500100 0.150164
vt 0.875829 0.196009
vt 0.696009 0.124171
vt 0.624171 0.303991
vt 0.803991 0.375829
vn 0.026399 -0.999634 0.000000
vn 0.030335 -0.706778 -0.706778
vn 0.577349 -0.577349 -0.577349
vn 0.707083 -0.707083 0.000000
vn 0.577349 -0.577349 0.577349
vn 0.030335 -0.706778 0.706778
vn -0.707083 -0.707083 0.000000
vn 0.026399 0.999634 0.000000
vn 0.707083 0.707083 0.000000
vn 0.577349 0.577349 -0.577349
vn 0.030335 0.706778 -0.706778
vn -0.707083 0.707083 0.000000
vn 0.030335 0.706778 0.706778
vn 0.577349 0.577349 0.577349
vn 1.000000 0.000000 0.000000
vn 0.707083 0.000000 -0.707083
vn 0.707083 0.000000 0.707083
vn 0.026399 0.000000 0.999634
vn -0.707083 0.000000 0.707083
vn -1.000000 0.000000 0.000000
vn -0.707083 0.000000 -0.707083
vn 0.026399 0.000000 -0.999634
vn -0.577349 -0.577349 0.577349
vn -0.577349 -0.577349 -0.577349
vn -0.577349 0.577349 -0.577349
vn -0.577349 0.577349 0.577349
usemtl Material
s 1
f 1/1/1 8/2/2 19/3/3
f 1/1/1 7/4/4 20/5/5
f 1/6/1 10/7/6 12/8/7
f 1/6/1 12/8/7 8/9/2
f 2/10/8 15/11/9 23/12/10
f 2/13/8 16/14/11 18/15/12
f 2/13/8 18/15/12 17/16/13
f 2/10/8 17/17/13 24/18/14
f 3/19/15 7/4/4 19/3/3
f 3/19/15 9/20/16 23/12/10
f 3/19/15 15/11/9 24/18/14
f 3/19/15 11/21/17 20/5/5
f 4/22/18 10/23/6 20/5/5
f 4/22/18 11/21/17 24/18/14
f 4/24/18 17/16/13 13/25/19
f 4/24/18 13/25/19 10/7/6
f 5/26/20 12/8/7 13/25/19
f 5/26/20 13/25/19 18/15/12
f 5/26/20 18/15/12 14/27/21
f 5/26/20 14/27/21 12/8/7
f 6/28/22 16/29/11 23/12/10
f 6/28/22 9/20/16 19/3/3
f 6/30/22 8/9/2 14/27/21
f 6/30/22 14/27/21 16/14/11
f 7/4/4 1/1/1 19/3/3
f 10/23/6 1/1/1 20/5/5
f 10/7/6 21/31/23 12/8/7
f 12/8/7 22/32/24 8/9/2
f 16/29/11 2/10/8 23/12/10
f 16/14/11 26/33/25 18/15/12
f 18/15/12 25/34/26 17/16/13
f 15/11/9 2/10/8 24/18/14
f 9/20/16 3/19/15 19/3/3
f 15/11/9 3/19/15 23/12/10
f 11/21/17 3/19/15 24/18/14
f 7/4/4 3/19/15 20/5/5
f 11/21/17 4/22/18 20/5/5
f 17/17/13 4/22/18 24/18/14
f 17/16/13 25/34/26 13/25/19
f 13/25/19 21/31/23 10/7/6
f 12/8/7 21/31/23 13/25/19
f 13/25/19 25/34/26 18/15/12
f 18/15/12 26/33/25 14/27/21
f 14/27/21 22/32/24 12/8/7
f 9/20/16 6/28/22 23/12/10
f 8/2/2 6/28/22 19/3/3
f 8/9/2 22/32/24 14/27/21
f 14/27/21 26/33/25 16/14/11
